<?xml version="1.0" encoding="UTF-8"?>
<!DOCTYPE svg PUBLIC "-//W3C//DTD SVG 1.1//EN" "http://www.w3.org/Graphics/SVG/1.1/DTD/svg11.dtd">
<svg xmlns="http://www.w3.org/2000/svg" version="1.1" width="512px" height="512px" style="shape-rendering:geometricPrecision; text-rendering:geometricPrecision; image-rendering:optimizeQuality; fill-rule:evenodd; clip-rule:evenodd" xmlns:xlink="http://www.w3.org/1999/xlink">
<g><path style="opacity:0.99" fill="#0374b3" d="M 511.5,37.5 C 511.5,182.833 511.5,328.167 511.5,473.5C 509.785,492.389 499.785,504.556 481.5,510C 330.833,510.667 180.167,510.667 29.5,510C 11.2146,504.556 1.21456,492.389 -0.5,473.5C -0.5,328.167 -0.5,182.833 -0.5,37.5C 1.1759,18.6441 11.1759,6.47745 29.5,1C 180.167,0.333333 330.833,0.333333 481.5,1C 499.824,6.47745 509.824,18.6441 511.5,37.5 Z"/></g>
<g><path style="opacity:1" fill="#fdfdfe" d="M 155.5,100.5 C 155.41,103.152 156.076,105.485 157.5,107.5C 159.716,134.175 147.716,151.008 121.5,158C 96.7025,160.519 80.2025,150.019 72,126.5C 67.3796,99.5723 77.8796,81.4056 103.5,72C 128.348,68.25 145.682,77.75 155.5,100.5 Z"/></g>
<g><path style="opacity:1" fill="#b9d7e9" d="M 155.5,100.5 C 156.924,102.515 157.59,104.848 157.5,107.5C 156.076,105.485 155.41,103.152 155.5,100.5 Z"/></g>
<g><path style="opacity:1" fill="#fefefe" d="M 431.5,256.5 C 431.362,261.414 432.028,266.081 433.5,270.5C 434.499,324.664 434.832,378.997 434.5,433.5C 409.833,433.5 385.167,433.5 360.5,433.5C 360.832,389.663 360.499,345.997 359.5,302.5C 358.25,257.874 336.583,243.04 294.5,258C 286.178,263.818 280.845,271.651 278.5,281.5C 277.076,283.515 276.41,285.848 276.5,288.5C 274.978,294.047 274.312,299.714 274.5,305.5C 273.501,347.997 273.168,390.663 273.5,433.5C 249.167,433.5 224.833,433.5 200.5,433.5C 200.5,353.167 200.5,272.833 200.5,192.5C 223.833,192.5 247.167,192.5 270.5,192.5C 270.5,203.5 270.5,214.5 270.5,225.5C 271.791,225.737 272.791,225.404 273.5,224.5C 277.957,216.113 283.957,208.947 291.5,203C 299.875,196.445 309.208,191.945 319.5,189.5C 322.152,189.59 324.485,188.924 326.5,187.5C 351.757,183.518 375.757,187.352 398.5,199C 417.876,213.241 428.876,232.407 431.5,256.5 Z"/></g>
<g><path style="opacity:1" fill="#bedaeb" d="M 326.5,187.5 C 324.485,188.924 322.152,189.59 319.5,189.5C 321.515,188.076 323.848,187.41 326.5,187.5 Z"/></g>
<g><path style="opacity:1" fill="#b1d4e7" d="M 199.5,192.5 C 223.328,191.502 247.328,191.169 271.5,191.5C 270.856,202.884 271.523,213.884 273.5,224.5C 272.791,225.404 271.791,225.737 270.5,225.5C 270.5,214.5 270.5,203.5 270.5,192.5C 247.167,192.5 223.833,192.5 200.5,192.5C 200.167,192.5 199.833,192.5 199.5,192.5 Z"/></g>
<g><path style="opacity:1" fill="#daeaf3" d="M 151.5,192.5 C 126.833,192.5 102.167,192.5 77.5,192.5C 77.5,272.833 77.5,353.167 77.5,433.5C 102.167,433.5 126.833,433.5 151.5,433.5C 126.672,434.498 101.672,434.831 76.5,434.5C 76.5,353.5 76.5,272.5 76.5,191.5C 101.672,191.169 126.672,191.502 151.5,192.5 Z"/></g>
<g><path style="opacity:1" fill="#fefefe" d="M 151.5,192.5 C 151.5,272.833 151.5,353.167 151.5,433.5C 126.833,433.5 102.167,433.5 77.5,433.5C 77.5,353.167 77.5,272.833 77.5,192.5C 102.167,192.5 126.833,192.5 151.5,192.5 Z"/></g>
<g><path style="opacity:1" fill="#e6f1f6" d="M 199.5,192.5 C 199.833,192.5 200.167,192.5 200.5,192.5C 200.5,272.833 200.5,353.167 200.5,433.5C 224.833,433.5 249.167,433.5 273.5,433.5C 273.168,390.663 273.501,347.997 274.5,305.5C 274.5,348.5 274.5,391.5 274.5,434.5C 249.5,434.5 224.5,434.5 199.5,434.5C 199.5,353.833 199.5,273.167 199.5,192.5 Z"/></g>
<g><path style="opacity:1" fill="#b9d7e9" d="M 431.5,256.5 C 432.972,260.919 433.638,265.586 433.5,270.5C 432.028,266.081 431.362,261.414 431.5,256.5 Z"/></g>
<g><path style="opacity:1" fill="#5da1cb" d="M 278.5,281.5 C 278.59,284.152 277.924,286.485 276.5,288.5C 276.41,285.848 277.076,283.515 278.5,281.5 Z"/></g>
<g><path style="opacity:1" fill="#edf4f8" d="M 359.5,302.5 C 360.499,345.997 360.832,389.663 360.5,433.5C 385.167,433.5 409.833,433.5 434.5,433.5C 409.672,434.498 384.672,434.831 359.5,434.5C 359.5,390.5 359.5,346.5 359.5,302.5 Z"/></g>
</svg>
